<svg width="124" height="30" viewBox="0 0 124 30" fill="none" xmlns="http://www.w3.org/2000/svg">
<g opacity="0.3">
<path d="M36.5107 21.0678H45.2561V18.4337H39.619V8.51172H36.5107V21.0678Z" fill="#111111"/>
<path d="M50.4377 19.313C49.1909 19.313 48.5411 18.2242 48.5411 16.5911C48.5411 14.9579 49.1909 13.8515 50.4377 13.8515C51.6845 13.8515 52.3518 14.9579 52.3518 16.5911C52.3518 18.2242 51.6845 19.313 50.4377 19.313ZM50.4553 21.3501C53.3528 21.3501 55.2494 19.2954 55.2494 16.5911C55.2494 13.8867 53.3528 11.832 50.4553 11.832C47.5753 11.832 45.6436 13.8867 45.6436 16.5911C45.6436 19.2954 47.5753 21.3501 50.4553 21.3501Z" fill="#111111"/>
<path d="M60.2641 24.1754C61.5987 24.1754 62.7753 23.8769 63.5655 23.1745C64.2855 22.5247 64.7597 21.5413 64.7597 20.1891V12.0759H62.0202V13.0418H61.9851C61.4582 12.2866 60.6504 11.8125 59.4563 11.8125C57.226 11.8125 55.6807 13.674 55.6807 16.3081C55.6807 19.0652 57.5597 20.5754 59.5792 20.5754C60.668 20.5754 61.3529 20.1364 61.8797 19.5393H61.9499V20.4349C61.9499 21.5237 61.4407 22.1559 60.229 22.1559C59.2807 22.1559 58.8065 21.752 58.6485 21.2779H55.8738C56.1548 23.1569 57.788 24.1754 60.2641 24.1754ZM60.2465 18.4505C59.1753 18.4505 58.4729 17.5725 58.4729 16.2203C58.4729 14.8505 59.1753 13.9725 60.2465 13.9725C61.4407 13.9725 62.0729 14.991 62.0729 16.2027C62.0729 17.4671 61.4933 18.4505 60.2465 18.4505Z" fill="#111111"/>
<path d="M70.3928 19.313C69.146 19.313 68.4962 18.2242 68.4962 16.5911C68.4962 14.9579 69.146 13.8515 70.3928 13.8515C71.6396 13.8515 72.3069 14.9579 72.3069 16.5911C72.3069 18.2242 71.6396 19.313 70.3928 19.313ZM70.4103 21.3501C73.3079 21.3501 75.2047 19.2954 75.2047 16.5911C75.2047 13.8867 73.3079 11.832 70.4103 11.832C67.5303 11.832 65.5986 13.8867 65.5986 16.5911C65.5986 19.2954 67.5303 21.3501 70.4103 21.3501Z" fill="#111111"/>
<path d="M76.041 21.0678H78.9035V12.0766H76.041V21.0678ZM76.041 10.8298H78.9035V8.51172H76.041V10.8298Z" fill="#111111"/>
<path d="M80.1445 24.0349H83.007V20.1364H83.0421C83.604 20.8915 84.4294 21.3481 85.5884 21.3481C87.9416 21.3481 89.5045 19.4866 89.5045 16.5715C89.5045 13.8671 88.047 11.8125 85.6587 11.8125C84.4294 11.8125 83.5514 12.3569 82.9367 13.1647H82.884V12.0759H80.1445V24.0349ZM84.8509 19.1354C83.6216 19.1354 82.9192 18.1345 82.9192 16.6769C82.9192 15.2193 83.5514 14.113 84.7982 14.113C86.0275 14.113 86.607 15.1315 86.607 16.6769C86.607 18.2047 85.9397 19.1354 84.8509 19.1354Z" fill="#111111"/>
<path d="M94.1657 21.3481C96.5188 21.3481 98.2574 20.3296 98.2574 18.3627C98.2574 16.0623 96.3959 15.6584 94.8154 15.3949C93.6739 15.1842 92.6554 15.0964 92.6554 14.4642C92.6554 13.9023 93.1998 13.6388 93.9022 13.6388C94.6925 13.6388 95.2369 13.8847 95.3422 14.6925H97.9764C97.8359 12.9188 96.4661 11.8125 93.9198 11.8125C91.7949 11.8125 90.0388 12.7959 90.0388 14.6925C90.0388 16.7998 91.7071 17.2213 93.27 17.4847C94.4642 17.6954 95.553 17.7832 95.553 18.591C95.553 19.1705 95.0086 19.4866 94.1481 19.4866C93.1998 19.4866 92.6027 19.0476 92.4974 18.152H89.793C89.8808 20.1364 91.5315 21.3481 94.1657 21.3481Z" fill="#111111"/>
<path d="M102.144 21.3328C103.391 21.3328 104.181 20.8411 104.831 19.963H104.884V21.0693H107.623V12.0781H104.761V17.1006C104.761 18.1718 104.164 18.9093 103.18 18.9093C102.267 18.9093 101.828 18.365 101.828 17.3815V12.0781H98.9834V17.9786C98.9834 19.9806 100.072 21.3328 102.144 21.3328Z" fill="#111111"/>
<path d="M108.869 21.0671H111.732V16.0271C111.732 14.9559 112.258 14.2008 113.154 14.2008C114.015 14.2008 114.418 14.7627 114.418 15.7286V21.0671H117.281V16.0271C117.281 14.9559 117.79 14.2008 118.703 14.2008C119.564 14.2008 119.968 14.7627 119.968 15.7286V21.0671H122.83V15.2193C122.83 13.1998 121.812 11.8125 119.775 11.8125C118.615 11.8125 117.65 12.3042 116.947 13.393H116.912C116.455 12.4271 115.56 11.8125 114.383 11.8125C113.084 11.8125 112.223 12.4271 111.661 13.3579H111.609V12.0759H108.869V21.0671Z" fill="#111111"/>
<path fill-rule="evenodd" clip-rule="evenodd" d="M7.26005 2.84743C6.21322 3.5794 5.26661 4.44483 4.44487 5.41904C7.80289 5.10728 12.0691 5.61634 17.0222 8.0929C22.3114 10.7374 26.5706 10.8268 29.5347 10.2551C29.2657 9.44078 28.9271 8.65814 28.526 7.91414C25.1329 8.27202 20.7829 7.79831 15.7133 5.26361C12.4941 3.654 9.65641 2.99094 7.26005 2.84743ZM26.5439 5.09288C23.8643 2.09899 19.9703 0.214844 15.6361 0.214844C14.3633 0.214844 13.1283 0.377361 11.951 0.682756C13.5455 1.11783 15.2394 1.75435 17.0222 2.64577C20.7339 4.50157 23.9383 5.0991 26.5439 5.09288ZM30.1684 13.1134C26.5875 13.8206 21.6425 13.6753 15.7133 10.7107C10.1702 7.93917 5.75837 7.97407 2.78286 8.63531C2.62927 8.66941 2.4793 8.70526 2.33295 8.74258C1.94338 9.58983 1.63242 10.4808 1.4093 11.4059C1.6476 11.3423 1.89385 11.2818 2.14792 11.2253C5.75774 10.4231 10.8581 10.4579 17.0222 13.54C22.5654 16.3116 26.9772 16.2767 29.9528 15.6154C30.0547 15.5928 30.1552 15.5694 30.254 15.5453C30.2648 15.3146 30.2702 15.0824 30.2702 14.849C30.2702 14.2618 30.2357 13.6826 30.1684 13.1134ZM29.7762 18.6336C26.2299 19.2536 21.429 19.0156 15.7133 16.1578C10.1702 13.3863 5.75837 13.4212 2.78286 14.0824C2.12238 14.2291 1.52823 14.4079 1.0041 14.5966C1.00267 14.6805 1.00195 14.7647 1.00195 14.849C1.00195 22.9312 7.55387 29.4831 15.6361 29.4831C22.4096 29.4831 28.1082 24.8813 29.7762 18.6336Z" fill="#111111"/>
</g>
</svg>
