<svg width="123" height="30" viewBox="0 0 123 30" fill="none" xmlns="http://www.w3.org/2000/svg">
<g opacity="0.3" clip-path="url(#clip0_295_3095)">
<path d="M36.0566 21.185H44.802V18.5509H39.1649V8.62891H36.0566V21.185Z" fill="#111111"/>
<path d="M49.9836 19.4302C48.7368 19.4302 48.087 18.3414 48.087 16.7082C48.087 15.0751 48.7368 13.9687 49.9836 13.9687C51.2304 13.9687 51.8977 15.0751 51.8977 16.7082C51.8977 18.3414 51.2304 19.4302 49.9836 19.4302ZM50.0012 21.4673C52.8987 21.4673 54.7953 19.4126 54.7953 16.7082C54.7953 14.0039 52.8987 11.9492 50.0012 11.9492C47.1212 11.9492 45.1895 14.0039 45.1895 16.7082C45.1895 19.4126 47.1212 21.4673 50.0012 21.4673Z" fill="#111111"/>
<path d="M59.811 24.2926C61.1456 24.2926 62.3222 23.9941 63.1124 23.2916C63.8324 22.6419 64.3066 21.6585 64.3066 20.3063V12.1931H61.5671V13.159H61.5319C61.0051 12.4038 60.1973 11.9297 59.0032 11.9297C56.7729 11.9297 55.2275 13.7912 55.2275 16.4253C55.2275 19.1824 57.1066 20.6926 59.1261 20.6926C60.2149 20.6926 60.8997 20.2536 61.4266 19.6565H61.4968V20.5521C61.4968 21.6409 60.9875 22.2731 59.7758 22.2731C58.8275 22.2731 58.3534 21.8692 58.1953 21.3951H55.4207C55.7017 23.2741 57.3349 24.2926 59.811 24.2926ZM59.7934 18.5677C58.7222 18.5677 58.0197 17.6897 58.0197 16.3375C58.0197 14.9677 58.7222 14.0897 59.7934 14.0897C60.9875 14.0897 61.6197 15.1082 61.6197 16.3199C61.6197 17.5843 61.0402 18.5677 59.7934 18.5677Z" fill="#111111"/>
<path d="M69.9387 19.4302C68.6918 19.4302 68.0421 18.3414 68.0421 16.7082C68.0421 15.0751 68.6918 13.9687 69.9387 13.9687C71.1855 13.9687 71.8528 15.0751 71.8528 16.7082C71.8528 18.3414 71.1855 19.4302 69.9387 19.4302ZM69.9562 21.4673C72.8538 21.4673 74.75 19.4126 74.75 16.7082C74.75 14.0039 72.8538 11.9492 69.9562 11.9492C67.0762 11.9492 65.1445 14.0039 65.1445 16.7082C65.1445 19.4126 67.0762 21.4673 69.9562 21.4673Z" fill="#111111"/>
<path d="M75.5869 21.185H78.4493V12.1938H75.5869V21.185ZM75.5869 10.947H78.4493V8.62891H75.5869V10.947Z" fill="#111111"/>
<path d="M79.6914 24.1521H82.5538V20.2536H82.589C83.1509 21.0087 83.9763 21.4653 85.1353 21.4653C87.4885 21.4653 89.0514 19.6038 89.0514 16.6887C89.0514 13.9843 87.5938 11.9297 85.2055 11.9297C83.9763 11.9297 83.0982 12.4741 82.4836 13.2819H82.4309V12.1931H79.6914V24.1521ZM84.3977 19.2526C83.1685 19.2526 82.466 18.2516 82.466 16.7941C82.466 15.3365 83.0982 14.2302 84.3451 14.2302C85.5743 14.2302 86.1538 15.2487 86.1538 16.7941C86.1538 18.3219 85.4865 19.2526 84.3977 19.2526Z" fill="#111111"/>
<path d="M93.7116 21.4653C96.0647 21.4653 97.8033 20.4468 97.8033 18.4799C97.8033 16.1794 95.9418 15.7755 94.3613 15.5121C93.2198 15.3014 92.2013 15.2136 92.2013 14.5814C92.2013 14.0194 92.7457 13.756 93.4481 13.756C94.2384 13.756 94.7828 14.0019 94.8881 14.8097H97.5223C97.3818 13.036 96.012 11.9297 93.4657 11.9297C91.3408 11.9297 89.5847 12.9131 89.5847 14.8097C89.5847 16.917 91.253 17.3385 92.8159 17.6019C94.0101 17.8126 95.0989 17.9004 95.0989 18.7082C95.0989 19.2877 94.5545 19.6038 93.694 19.6038C92.7457 19.6038 92.1486 19.1648 92.0433 18.2692H89.3389C89.4267 20.2536 91.0774 21.4653 93.7116 21.4653Z" fill="#111111"/>
<path d="M101.691 21.4499C102.938 21.4499 103.728 20.9582 104.378 20.0802H104.431V21.1865H107.17V12.1953H104.308V17.2178C104.308 18.289 103.711 19.0265 102.727 19.0265C101.814 19.0265 101.375 18.4821 101.375 17.4987V12.1953H98.5303V18.0958C98.5303 20.0978 99.619 21.4499 101.691 21.4499Z" fill="#111111"/>
<path d="M108.416 21.1843H111.278V16.1443C111.278 15.0731 111.805 14.318 112.701 14.318C113.561 14.318 113.965 14.8799 113.965 15.8458V21.1843H116.828V16.1443C116.828 15.0731 117.337 14.318 118.25 14.318C119.111 14.318 119.515 14.8799 119.515 15.8458V21.1843H122.377V15.3365C122.377 13.317 121.358 11.9297 119.321 11.9297C118.162 11.9297 117.196 12.4214 116.494 13.5102H116.459C116.002 12.5443 115.107 11.9297 113.93 11.9297C112.631 11.9297 111.77 12.5443 111.208 13.4751H111.156V12.1931H108.416V21.1843Z" fill="#111111"/>
<path d="M18.5928 1.4469L15.715 0.675781L13.2898 9.72668L11.1003 1.55547L8.22246 2.32659L10.5881 11.155L4.69589 5.26284L2.58917 7.36956L9.05214 13.8326L1.00354 11.676L0.232422 14.5538L9.02653 16.9101C8.92585 16.4759 8.87258 16.0234 8.87258 15.5585C8.87258 12.2675 11.5404 9.59973 14.8313 9.59973C18.1222 9.59973 20.79 12.2675 20.79 15.5585C20.79 16.0204 20.7374 16.4701 20.638 16.9018L28.6302 19.0433L29.4013 16.1655L20.5722 13.7997L28.6214 11.643L27.8502 8.76515L19.0215 11.1308L24.9137 5.23865L22.8069 3.13192L16.4336 9.50527L18.5928 1.4469Z" fill="#111111"/>
<path d="M20.6298 16.9375C20.3831 17.9806 19.8622 18.9177 19.1475 19.6685L24.9375 25.4586L27.0442 23.3519L20.6298 16.9375Z" fill="#111111"/>
<path d="M19.0894 19.7266C18.366 20.4654 17.4519 21.0167 16.4268 21.3008L18.5336 29.1638L21.4114 28.3926L19.0894 19.7266Z" fill="#111111"/>
<path d="M16.3188 21.3279C15.8432 21.4501 15.3447 21.5151 14.8309 21.5151C14.2805 21.5151 13.7476 21.4405 13.2416 21.3008L11.1328 29.1709L14.0106 29.942L16.3188 21.3279Z" fill="#111111"/>
<path d="M13.1399 21.2733C12.1304 20.9751 11.2326 20.4167 10.524 19.6758L4.71973 25.48L6.82645 27.5868L13.1399 21.2733Z" fill="#111111"/>
<path d="M10.4752 19.6269C9.77879 18.8813 9.27149 17.9567 9.03003 16.9297L1.01172 19.0782L1.78283 21.956L10.4752 19.6269Z" fill="#111111"/>
</g>
<defs>
<clipPath id="clip0_295_3095">
<rect width="122.927" height="30" fill="white"/>
</clipPath>
</defs>
</svg>
