<svg width="156" height="32" viewBox="0 0 156 32" fill="none" xmlns="http://www.w3.org/2000/svg">
<path d="M14.8533 0.240262C6.64991 0.37311 0.102625 7.46846 0.229049 16.0887L0.389282 27.0142C0.407495 28.2561 0.894426 29.4395 1.74296 30.304C2.59149 31.1686 3.73211 31.6436 4.91391 31.6244L14.5685 31.4681L14.4681 24.6209C14.4451 23.0586 14.3308 21.4415 13.5315 20.1243C12.9593 19.1803 12.2005 18.3767 11.3067 17.768C10.4129 17.1593 9.40494 16.7598 8.35123 16.5965L8.06608 16.5527C7.9482 16.5125 7.84524 16.4345 7.7716 16.3298C7.69797 16.225 7.65736 16.0987 7.65545 15.9684C7.65354 15.8382 7.69043 15.7106 7.76095 15.6035C7.83148 15.4964 7.93211 15.4152 8.04875 15.3712L8.33248 15.3182C9.86431 15.0297 11.2712 14.2429 12.3545 13.0689C13.4379 11.8949 14.1429 10.3929 14.3701 8.77515L14.4118 8.47551C14.45 8.35164 14.5242 8.24345 14.6239 8.16607C14.7236 8.0887 14.8438 8.04602 14.9678 8.04402C15.0917 8.04201 15.2131 8.08077 15.315 8.15488C15.417 8.22899 15.4943 8.33473 15.5362 8.4573L15.5866 8.75545C15.7744 9.85712 16.1856 10.9035 16.7921 11.8235C17.3986 12.7435 18.1864 13.5157 19.1019 14.0876C20.3794 14.8866 21.9211 14.9568 23.4079 14.9328L29.9061 14.8275C29.3966 6.57645 22.8072 0.111455 14.8533 0.240262Z" fill="white"/>
<circle cx="23.805" cy="25.3661" r="6.63415" fill="white"/>
<path d="M47.2075 25L53.7115 7.72H55.9195L49.7035 25H47.2075ZM60.5755 25L54.3595 7.72H56.6875L63.2155 25H60.5755ZM50.4955 18.112H59.7595V20.224H50.4955V18.112ZM65.3861 25V12.76H67.7621V15.64H67.8821V25H65.3861ZM73.6421 25V17.008C73.6421 16.176 73.4501 15.568 73.0661 15.184C72.6821 14.8 72.1301 14.608 71.4101 14.608C70.7381 14.608 70.1301 14.768 69.5861 15.088C69.0581 15.392 68.6421 15.824 68.3381 16.384C68.0341 16.928 67.8821 17.576 67.8821 18.328L67.5701 15.472C67.9701 14.56 68.5701 13.84 69.3701 13.312C70.1861 12.784 71.0981 12.52 72.1061 12.52C73.3221 12.52 74.2901 12.872 75.0101 13.576C75.7461 14.28 76.1141 15.208 76.1141 16.36V25H73.6421ZM81.8981 25V17.008C81.8981 16.176 81.6981 15.568 81.2981 15.184C80.9141 14.8 80.3621 14.608 79.6421 14.608C78.9861 14.608 78.3861 14.768 77.8421 15.088C77.3141 15.392 76.8901 15.824 76.5701 16.384C76.2661 16.928 76.1141 17.576 76.1141 18.328L75.6101 15.472C76.0261 14.56 76.6501 13.84 77.4821 13.312C78.3301 12.784 79.2741 12.52 80.3141 12.52C81.5461 12.52 82.5301 12.88 83.2661 13.6C84.0021 14.304 84.3701 15.248 84.3701 16.432V25H81.8981ZM93.8901 25.216C92.7381 25.216 91.7781 24.944 91.0101 24.4C90.2421 23.84 89.7381 23.064 89.4981 22.072L89.7381 22.024V25H87.3621V7.72H89.8581V15.568L89.5941 15.496C89.8661 14.568 90.3941 13.84 91.1781 13.312C91.9781 12.784 92.9381 12.52 94.0581 12.52C95.1621 12.52 96.1141 12.784 96.9141 13.312C97.7301 13.84 98.3541 14.576 98.7861 15.52C99.2341 16.464 99.4581 17.568 99.4581 18.832C99.4581 20.112 99.2261 21.232 98.7621 22.192C98.2981 23.152 97.6501 23.896 96.8181 24.424C95.9861 24.952 95.0101 25.216 93.8901 25.216ZM93.3621 23.152C94.4501 23.152 95.3141 22.768 95.9541 22C96.5941 21.232 96.9141 20.176 96.9141 18.832C96.9141 17.504 96.5941 16.472 95.9541 15.736C95.3141 14.984 94.4421 14.608 93.3381 14.608C92.2501 14.608 91.3781 14.992 90.7221 15.76C90.0821 16.512 89.7621 17.56 89.7621 18.904C89.7621 20.216 90.0821 21.256 90.7221 22.024C91.3781 22.776 92.2581 23.152 93.3621 23.152ZM101.651 25V12.76H104.147V25H101.651ZM101.531 10.36V7.552H104.291V10.36H101.531ZM112.524 25.24C111.292 25.24 110.204 24.968 109.26 24.424C108.332 23.88 107.604 23.128 107.076 22.168C106.548 21.208 106.284 20.104 106.284 18.856C106.284 17.592 106.54 16.488 107.052 15.544C107.58 14.584 108.316 13.84 109.26 13.312C110.204 12.784 111.284 12.52 112.5 12.52C113.684 12.52 114.708 12.776 115.572 13.288C116.452 13.784 117.124 14.48 117.588 15.376C118.068 16.272 118.308 17.336 118.308 18.568C118.308 18.76 118.3 18.944 118.284 19.12C118.284 19.28 118.268 19.448 118.236 19.624H107.964V17.752H116.484L115.86 18.496C115.86 17.184 115.564 16.184 114.972 15.496C114.38 14.808 113.556 14.464 112.5 14.464C111.364 14.464 110.46 14.856 109.788 15.64C109.132 16.408 108.804 17.48 108.804 18.856C108.804 20.248 109.132 21.336 109.788 22.12C110.46 22.904 111.388 23.296 112.572 23.296C113.292 23.296 113.916 23.152 114.444 22.864C114.972 22.56 115.364 22.12 115.62 21.544H117.972C117.572 22.696 116.892 23.6 115.932 24.256C114.988 24.912 113.852 25.24 112.524 25.24ZM120.501 25V12.76H122.877V15.64H122.997V25H120.501ZM129.189 25V17.128C129.189 16.28 128.973 15.648 128.541 15.232C128.125 14.816 127.501 14.608 126.669 14.608C125.949 14.608 125.309 14.768 124.749 15.088C124.205 15.408 123.773 15.848 123.453 16.408C123.149 16.968 122.997 17.632 122.997 18.4L122.685 15.472C123.085 14.56 123.701 13.84 124.533 13.312C125.365 12.784 126.333 12.52 127.437 12.52C128.749 12.52 129.781 12.888 130.533 13.624C131.285 14.36 131.661 15.336 131.661 16.552V25H129.189ZM139.505 25.24C138.081 25.24 137.033 24.912 136.361 24.256C135.705 23.584 135.377 22.6 135.377 21.304V9.952L137.849 9.016V21.328C137.849 21.968 138.017 22.44 138.353 22.744C138.689 23.048 139.233 23.2 139.985 23.2C140.273 23.2 140.529 23.176 140.753 23.128C140.977 23.08 141.169 23.024 141.329 22.96V24.976C141.153 25.056 140.905 25.12 140.585 25.168C140.265 25.216 139.905 25.24 139.505 25.24ZM132.929 14.752V12.76H141.329V14.752H132.929ZM148.311 25.24C147.079 25.24 145.991 24.968 145.047 24.424C144.119 23.88 143.391 23.128 142.863 22.168C142.335 21.208 142.071 20.104 142.071 18.856C142.071 17.592 142.327 16.488 142.839 15.544C143.367 14.584 144.103 13.84 145.047 13.312C145.991 12.784 147.071 12.52 148.287 12.52C149.471 12.52 150.495 12.776 151.359 13.288C152.239 13.784 152.911 14.48 153.375 15.376C153.855 16.272 154.095 17.336 154.095 18.568C154.095 18.76 154.087 18.944 154.071 19.12C154.071 19.28 154.055 19.448 154.023 19.624H143.751V17.752H152.271L151.647 18.496C151.647 17.184 151.351 16.184 150.759 15.496C150.167 14.808 149.343 14.464 148.287 14.464C147.151 14.464 146.247 14.856 145.575 15.64C144.919 16.408 144.591 17.48 144.591 18.856C144.591 20.248 144.919 21.336 145.575 22.12C146.247 22.904 147.175 23.296 148.359 23.296C149.079 23.296 149.703 23.152 150.231 22.864C150.759 22.56 151.151 22.12 151.407 21.544H153.759C153.359 22.696 152.679 23.6 151.719 24.256C150.775 24.912 149.639 25.24 148.311 25.24Z" fill="white"/>
</svg>
