<svg width="39" height="41" viewBox="0 0 39 41" fill="none" xmlns="http://www.w3.org/2000/svg">
<g id="Group 1">
<path id="Vector" d="M19.0306 0.307681C8.52002 0.477893 0.131305 9.5688 0.293286 20.6135L0.498585 34.6118C0.52192 36.2029 1.1458 37.7191 2.23298 38.8269C3.32017 39.9346 4.78159 40.5432 6.29576 40.5187L18.6657 40.3183L18.537 31.5454C18.5077 29.5436 18.3612 27.4717 17.3371 25.7841C16.6039 24.5746 15.6317 23.545 14.4865 22.7651C13.3413 21.9852 12.0499 21.4733 10.6998 21.2641L10.3345 21.208C10.1834 21.1564 10.0515 21.0566 9.95719 20.9223C9.86285 20.7881 9.81081 20.6263 9.80836 20.4594C9.80592 20.2926 9.85318 20.1291 9.94354 19.9919C10.0339 19.8546 10.1628 19.7506 10.3123 19.6942L10.6758 19.6263C12.6385 19.2566 14.4411 18.2486 15.8291 16.7444C17.2171 15.2401 18.1204 13.3158 18.4115 11.243L18.4649 10.8591C18.5139 10.7004 18.609 10.5618 18.7367 10.4626C18.8645 10.3635 19.0185 10.3088 19.1773 10.3062C19.3361 10.3037 19.4916 10.3533 19.6222 10.4483C19.7528 10.5432 19.8519 10.6787 19.9055 10.8358L19.9701 11.2178C20.2108 12.6293 20.7376 13.9699 21.5147 15.1487C22.2918 16.3275 23.3011 17.3168 24.4741 18.0496C26.1109 19.0733 28.0862 19.1633 29.9911 19.1324L38.3171 18.9976C37.6642 8.42592 29.2215 0.142647 19.0306 0.307681Z" fill="white"/>
<circle id="Ellipse 8717" cx="30.5" cy="32.5" r="8.5" fill="white"/>
</g>
</svg>
